<svg id="visual" viewBox="0 0 900 300" width="900" height="300" xmlns="http://www.w3.org/2000/svg" xmlns:xlink="http://www.w3.org/1999/xlink" version="1.1"><rect x="0" y="0" width="900" height="300" fill="#FFFFFF"></rect><path d="M0 197L13.7 193.2C27.3 189.3 54.7 181.7 82 176.3C109.3 171 136.7 168 163.8 165.5C191 163 218 161 245.2 172.5C272.3 184 299.7 209 327 208.2C354.3 207.3 381.7 180.7 409 175.7C436.3 170.7 463.7 187.3 491 193.8C518.3 200.3 545.7 196.7 573 203.5C600.3 210.3 627.7 227.7 654.8 221C682 214.3 709 183.7 736.2 168.2C763.3 152.7 790.7 152.3 818 166.8C845.3 181.3 872.7 210.7 886.3 225.3L900 240L900 0L886.3 0C872.7 0 845.3 0 818 0C790.7 0 763.3 0 736.2 0C709 0 682 0 654.8 0C627.7 0 600.3 0 573 0C545.7 0 518.3 0 491 0C463.7 0 436.3 0 409 0C381.7 0 354.3 0 327 0C299.7 0 272.3 0 245.2 0C218 0 191 0 163.8 0C136.7 0 109.3 0 82 0C54.7 0 27.3 0 13.7 0L0 0Z" fill="#ffffff"></path><path d="M0 171L13.7 168.2C27.3 165.3 54.7 159.7 82 152.5C109.3 145.3 136.7 136.7 163.8 136.5C191 136.3 218 144.7 245.2 143.8C272.3 143 299.7 133 327 133C354.3 133 381.7 143 409 153.3C436.3 163.7 463.7 174.3 491 174C518.3 173.7 545.7 162.3 573 159.5C600.3 156.7 627.7 162.3 654.8 155.2C682 148 709 128 736.2 134C763.3 140 790.7 172 818 189.7C845.3 207.3 872.7 210.7 886.3 212.3L900 214L900 0L886.3 0C872.7 0 845.3 0 818 0C790.7 0 763.3 0 736.2 0C709 0 682 0 654.8 0C627.7 0 600.3 0 573 0C545.7 0 518.3 0 491 0C463.7 0 436.3 0 409 0C381.7 0 354.3 0 327 0C299.7 0 272.3 0 245.2 0C218 0 191 0 163.8 0C136.7 0 109.3 0 82 0C54.7 0 27.3 0 13.7 0L0 0Z" fill="#e5f0fc"></path><path d="M0 171L13.7 166.5C27.3 162 54.7 153 82 141.2C109.3 129.3 136.7 114.7 163.8 108C191 101.3 218 102.7 245.2 103.3C272.3 104 299.7 104 327 111.7C354.3 119.3 381.7 134.7 409 133.5C436.3 132.3 463.7 114.7 491 107.7C518.3 100.7 545.7 104.3 573 110.7C600.3 117 627.7 126 654.8 122.8C682 119.7 709 104.3 736.2 104.3C763.3 104.3 790.7 119.7 818 126.7C845.3 133.7 872.7 132.3 886.3 131.7L900 131L900 0L886.3 0C872.7 0 845.3 0 818 0C790.7 0 763.3 0 736.2 0C709 0 682 0 654.8 0C627.7 0 600.3 0 573 0C545.7 0 518.3 0 491 0C463.7 0 436.3 0 409 0C381.7 0 354.3 0 327 0C299.7 0 272.3 0 245.2 0C218 0 191 0 163.8 0C136.7 0 109.3 0 82 0C54.7 0 27.3 0 13.7 0L0 0Z" fill="#cae0f9"></path><path d="M0 92L13.7 99.5C27.3 107 54.7 122 82 126.8C109.3 131.7 136.7 126.3 163.8 122.8C191 119.3 218 117.7 245.2 108.2C272.3 98.7 299.7 81.3 327 83.2C354.3 85 381.7 106 409 112C436.3 118 463.7 109 491 98.2C518.3 87.3 545.7 74.7 573 77.3C600.3 80 627.7 98 654.8 102.5C682 107 709 98 736.2 101.3C763.3 104.7 790.7 120.3 818 115.7C845.3 111 872.7 86 886.3 73.5L900 61L900 0L886.3 0C872.7 0 845.3 0 818 0C790.7 0 763.3 0 736.2 0C709 0 682 0 654.8 0C627.7 0 600.3 0 573 0C545.7 0 518.3 0 491 0C463.7 0 436.3 0 409 0C381.7 0 354.3 0 327 0C299.7 0 272.3 0 245.2 0C218 0 191 0 163.8 0C136.7 0 109.3 0 82 0C54.7 0 27.3 0 13.7 0L0 0Z" fill="#aed1f5"></path><path d="M0 99L13.7 90.5C27.3 82 54.7 65 82 61.3C109.3 57.7 136.7 67.3 163.8 71.7C191 76 218 75 245.2 70.7C272.3 66.3 299.7 58.7 327 63.2C354.3 67.7 381.7 84.3 409 92.8C436.3 101.3 463.7 101.7 491 101.5C518.3 101.3 545.7 100.7 573 95.8C600.3 91 627.7 82 654.8 74.8C682 67.7 709 62.3 736.2 58.5C763.3 54.7 790.7 52.3 818 57.8C845.3 63.3 872.7 76.7 886.3 83.3L900 90L900 0L886.3 0C872.7 0 845.3 0 818 0C790.7 0 763.3 0 736.2 0C709 0 682 0 654.8 0C627.7 0 600.3 0 573 0C545.7 0 518.3 0 491 0C463.7 0 436.3 0 409 0C381.7 0 354.3 0 327 0C299.7 0 272.3 0 245.2 0C218 0 191 0 163.8 0C136.7 0 109.3 0 82 0C54.7 0 27.3 0 13.7 0L0 0Z" fill="#8fc3f2"></path><path d="M0 28L13.7 27.5C27.3 27 54.7 26 82 32C109.3 38 136.7 51 163.8 51.2C191 51.3 218 38.7 245.2 32C272.3 25.3 299.7 24.7 327 30.7C354.3 36.7 381.7 49.3 409 54.7C436.3 60 463.7 58 491 52C518.3 46 545.7 36 573 32.2C600.3 28.3 627.7 30.7 654.8 30.3C682 30 709 27 736.2 29.8C763.3 32.7 790.7 41.3 818 42.3C845.3 43.3 872.7 36.7 886.3 33.3L900 30L900 0L886.3 0C872.7 0 845.3 0 818 0C790.7 0 763.3 0 736.2 0C709 0 682 0 654.8 0C627.7 0 600.3 0 573 0C545.7 0 518.3 0 491 0C463.7 0 436.3 0 409 0C381.7 0 354.3 0 327 0C299.7 0 272.3 0 245.2 0C218 0 191 0 163.8 0C136.7 0 109.3 0 82 0C54.7 0 27.3 0 13.7 0L0 0Z" fill="#6cb4ee"></path></svg>